# xmcd
#
# Track frame offsets:
#	150
#	17540
#	35843
#	60613
#	84978
#	102780
#	118455
#	139115
#	160950
#	184078
#
# Disc length: 2563 seconds
#
# Revision: 4
# Processed by: cddbd v1.5.2PL0 Copyright (c) Steve Scherf et al.
# Submitted via: EZCDAudioConverter 8.0.2.1
#
DISCID=830a010a
DTITLE=Various Artist - Je Suis Parti
DYEAR=1991
DGENRE=Pop
TTITLE0=Minh Xuân - Một thời để yêu (Les amoureux qui passent)
TTITLE1=Trọng Nghĩa - Biệt khúc (Je suis parti)
TTITLE2=Vy Lan - Mãi bên anh (Adios Amor)
TTITLE3=Billy Shane - Coupable
TTITLE4=Ngọc Lan - Chuyện tình yêu (Histoire d'un amour)
TTITLE5=Jo Marcel - Không có em trong đời (Et si tu n'existais pas)
TTITLE6=Julie - Xin chút ấm áp  trong tim (Une place dans ton coeur)
TTITLE7=Elvis Phương - Ái ân lần đầu (Faire l'amour)
TTITLE8=Cao Lâm - Khi xa nhau (Adieu sois heureuse)
TTITLE9=Kiều Nga - Tico tico
EXTD=
EXTT0=
EXTT1=
EXTT2=
EXTT3=
EXTT4=
EXTT5=
EXTT6=
EXTT7=
EXTT8=
EXTT9=
PLAYORDER=
